<svg width="71" height="74" viewBox="0 0 71 74" fill="none" xmlns="http://www.w3.org/2000/svg">
<path d="M0 9C0 4.02944 4.02944 0 9 0H61.3547C66.3253 0 70.3547 4.02944 70.3547 9V65C70.3547 69.9706 66.3253 74 61.3547 74H9C4.02944 74 0 69.9706 0 65V9Z" fill="#576886"/>
<path d="M40.7391 20L41.6051 19.5L40.7391 18L39.873 19.5L40.7391 20ZM53.9357 42.8573V43.8573H55.6678L54.8017 42.3573L53.9357 42.8573ZM27.5424 42.8573L26.6764 42.3573L25.8104 43.8573H27.5424V42.8573ZM39.873 20.5L53.0697 43.3573L54.8017 42.3573L41.6051 19.5L39.873 20.5ZM34.223 33.2861L41.6051 20.5L39.873 19.5L32.491 32.2861L34.223 33.2861ZM27.4286 32.1302C29.4109 32.1302 31.2612 32.6823 32.8376 33.6406L33.8765 31.9316C31.9959 30.7883 29.7876 30.1302 27.4286 30.1302V32.1302ZM17 42.5588C17 36.7992 21.6691 32.1302 27.4286 32.1302V30.1302C20.5645 30.1302 15 35.6947 15 42.5588H17ZM27.4286 52.9874C21.6691 52.9874 17 48.3184 17 42.5588H15C15 49.423 20.5645 54.9874 27.4286 54.9874V52.9874ZM37.8538 42.8316C37.7094 48.4648 33.097 52.9874 27.4286 52.9874V54.9874C34.1844 54.9874 39.681 49.5975 39.8531 42.8829L37.8538 42.8316ZM53.9357 41.8573H38.8535V43.8573H53.9357V41.8573ZM38.8535 41.8573H27.5424V43.8573H38.8535V41.8573ZM28.4084 43.3573L34.223 33.2861L32.491 32.2861L26.6764 42.3573L28.4084 43.3573ZM32.8376 33.6406C35.8493 35.4715 37.8573 38.7811 37.8573 42.5588H39.8573C39.8573 38.054 37.4601 34.1101 33.8765 31.9316L32.8376 33.6406ZM37.8573 42.5588C37.8573 42.65 37.8561 42.741 37.8538 42.8317L39.8531 42.8829C39.8559 42.7752 39.8573 42.6672 39.8573 42.5588H37.8573Z" fill="#291757"/>
<path d="M9 2H61.3547V-2H9V2ZM68.3547 9V65H72.3547V9H68.3547ZM61.3547 72H9V76H61.3547V72ZM2 65V9H-2V65H2ZM9 72C5.13401 72 2 68.866 2 65H-2C-2 71.0751 2.92487 76 9 76V72ZM68.3547 65C68.3547 68.866 65.2207 72 61.3547 72V76C67.4299 76 72.3547 71.0751 72.3547 65H68.3547ZM61.3547 2C65.2207 2 68.3547 5.13401 68.3547 9H72.3547C72.3547 2.92487 67.4299 -2 61.3547 -2V2ZM9 -2C2.92487 -2 -2 2.92487 -2 9H2C2 5.13401 5.13401 2 9 2V-2Z" fill="#291757"/>
</svg>
