<?xml version="1.0" encoding="utf-8"?>
<!-- Generator: Adobe Illustrator 24.1.1, SVG Export Plug-In . SVG Version: 6.00 Build 0)  -->
<svg version="1.1" id="Layer_1" xmlns="http://www.w3.org/2000/svg" xmlns:xlink="http://www.w3.org/1999/xlink" x="0px" y="0px"
	 viewBox="0 0 512 512" style="enable-background:new 0 0 512 512;" xml:space="preserve">
<g>
	<path d="M455.1,56.9c15.9,0,29.4,5.5,40.4,16.5c11,11,16.5,24.5,16.5,40.4v341.3c0,15.2-5.5,28.4-16.5,39.8
		c-11,11.4-24.5,17.1-40.4,17.1H56.9c-15.2,0-28.4-5.7-39.8-17.1S0,470.3,0,455.1V113.8c0-15.9,5.7-29.4,17.1-40.4
		s24.7-16.5,39.8-16.5h26.2v56.9h91V56.9h165v56.9h91V56.9H455.1 M455.1,455.1V227.6H56.9v227.6H455.1 M147.9,0v96.7h-39.8V0H147.9
		 M403.9,0v96.7h-39.8V0H403.9"/>
</g>
</svg>
