<svg width="24" height="24" viewBox="0 0 24 24" fill="none" xmlns="http://www.w3.org/2000/svg">
<path d="M18 20L17.2929 20.7071L18 21.4142L18.7071 20.7071L18 20ZM13 4C12.4477 4 12 4.44771 12 5C12 5.55229 12.4477 6 13 6L13 4ZM13.2929 16.7071L17.2929 20.7071L18.7071 19.2929L14.7071 15.2929L13.2929 16.7071ZM18.7071 20.7071L22.7071 16.7071L21.2929 15.2929L17.2929 19.2929L18.7071 20.7071ZM19 20L19 9L17 9L17 20L19 20ZM14 4L13 4L13 6L14 6L14 4ZM19 9C19 6.23858 16.7614 4 14 4L14 6C15.6569 6 17 7.34315 17 9L19 9Z" fill="white"/>
<path d="M6 4L6.70711 3.29289L6 2.58579L5.29289 3.29289L6 4ZM11 20C11.5523 20 12 19.5523 12 19C12 18.4477 11.5523 18 11 18L11 20ZM10.7071 7.29289L6.70711 3.29289L5.29289 4.70711L9.29289 8.70711L10.7071 7.29289ZM5.29289 3.29289L1.29289 7.29289L2.70711 8.70711L6.70711 4.70711L5.29289 3.29289ZM5 4L5 15L7 15L7 4L5 4ZM10 20L11 20L11 18L10 18L10 20ZM5 15C5 17.7614 7.23858 20 10 20L10 18C8.34315 18 7 16.6569 7 15L5 15Z" fill="white"/>
</svg>
