<svg width="84" height="47" viewBox="0 0 84 47" fill="none" xmlns="http://www.w3.org/2000/svg">
<path d="M0.0170898 3C0.0170898 1.34315 1.36024 0 3.01709 0H80.1931C81.8499 0 83.1931 1.34315 83.1931 3V44C83.1931 45.6569 81.8499 47 80.1931 47H3.01709C1.36023 47 0.0170898 45.6569 0.0170898 44V3Z" fill="#576886"/>
<path d="M47.7561 7L48.6222 6.5L47.7561 5L46.8901 6.5L47.7561 7ZM60.9528 29.8573V30.8573H62.6849L61.8188 29.3573L60.9528 29.8573ZM34.5595 29.8573L33.6935 29.3573L32.8274 30.8573H34.5595V29.8573ZM46.8901 7.5L60.0868 30.3573L61.8188 29.3573L48.6222 6.5L46.8901 7.5ZM41.2401 20.2861L48.6222 7.5L46.8901 6.5L39.5081 19.2861L41.2401 20.2861ZM34.4457 19.1302C36.428 19.1302 38.2783 19.6823 39.8546 20.6406L40.8936 18.9316C39.013 17.7883 36.8047 17.1302 34.4457 17.1302V19.1302ZM24.0171 29.5588C24.0171 23.7992 28.6862 19.1302 34.4457 19.1302V17.1302C27.5816 17.1302 22.0171 22.6947 22.0171 29.5588H24.0171ZM34.4457 39.9874C28.6862 39.9874 24.0171 35.3184 24.0171 29.5588H22.0171C22.0171 36.423 27.5816 41.9874 34.4457 41.9874V39.9874ZM44.8709 29.8316C44.7265 35.4648 40.1141 39.9874 34.4457 39.9874V41.9874C41.2015 41.9874 46.6981 36.5975 46.8702 29.8829L44.8709 29.8316ZM60.9528 28.8573H45.8705V30.8573H60.9528V28.8573ZM45.8705 28.8573H34.5595V30.8573H45.8705V28.8573ZM35.4255 30.3573L41.2401 20.2861L39.5081 19.2861L33.6935 29.3573L35.4255 30.3573ZM39.8546 20.6406C42.8663 22.4715 44.8744 25.7811 44.8744 29.5588H46.8744C46.8744 25.054 44.4771 21.1101 40.8936 18.9316L39.8546 20.6406ZM44.8744 29.5588C44.8744 29.65 44.8732 29.741 44.8709 29.8317L46.8702 29.8829C46.873 29.7752 46.8744 29.6671 46.8744 29.5588H44.8744Z" fill="#291757"/>
<path d="M3.01709 2H80.1931V-2H3.01709V2ZM81.1931 3V44H85.1931V3H81.1931ZM80.1931 45H3.01709V49H80.1931V45ZM2.01709 44V3H-1.98291V44H2.01709ZM3.01709 45C2.4648 45 2.01709 44.5523 2.01709 44H-1.98291C-1.98291 46.7614 0.255661 49 3.01709 49V45ZM81.1931 44C81.1931 44.5523 80.7453 45 80.1931 45V49C82.9545 49 85.1931 46.7614 85.1931 44H81.1931ZM80.1931 2C80.7453 2 81.1931 2.44771 81.1931 3H85.1931C85.1931 0.238578 82.9545 -2 80.1931 -2V2ZM3.01709 -2C0.255666 -2 -1.98291 0.238576 -1.98291 3H2.01709C2.01709 2.44772 2.4648 2 3.01709 2V-2Z" fill="#291757"/>
</svg>
