<svg width="63" height="83" viewBox="0 0 63 63" fill="none" xmlns="http://www.w3.org/2000/svg">
<path fill-rule="evenodd" clip-rule="evenodd" d="M18.0996 62.7188H45.1151C55.6833 62.7188 62.7808 55.3057 62.7808 44.2752V18.8185C62.7808 7.78802 55.6833 0.375 45.1182 0.375H18.0996C7.53452 0.375 0.437012 7.78802 0.437012 18.8185V44.2752C0.437012 55.3057 7.53452 62.7188 18.0996 62.7188ZM20.6957 28.4298C16.3982 28.4298 12.9062 24.9331 12.9062 20.6368C12.9062 16.3405 16.3982 12.8438 20.6957 12.8438C24.99 12.8438 28.4851 16.3405 28.4851 20.6368C28.4851 24.9331 24.99 28.4298 20.6957 28.4298ZM55.9881 40.6929C57.0319 43.3694 56.4896 46.5863 55.3737 49.237C54.0509 52.3896 51.5182 54.7765 48.3272 55.8188C46.9103 56.282 45.4245 56.4847 43.9419 56.4847H17.6711C15.0568 56.4847 12.7435 55.8574 10.8471 54.6897C9.65909 53.9562 9.44907 52.2641 10.3299 51.1672C11.8031 49.3335 13.2576 47.4934 14.7246 45.6373C17.5206 42.0858 19.4045 41.0564 21.4984 41.9604C22.3478 42.3335 23.2004 42.8933 24.0781 43.4852C26.4165 45.0743 29.6671 47.2586 33.9489 44.8877C36.879 43.2466 38.5785 40.4316 40.0585 37.9802L40.0832 37.9392C40.1881 37.7672 40.2921 37.5952 40.3957 37.4237C40.8931 36.6008 41.3838 35.7888 41.9389 35.0408C42.6348 34.1047 45.2145 31.1773 48.556 33.2618C50.6844 34.5743 52.4742 36.3501 54.3894 38.2513C55.1198 38.9783 55.6401 39.805 55.9881 40.6929Z" fill="white"/>
</svg>
