<svg width="1118" height="205" viewBox="0 0 1118 205" fill="none" xmlns="http://www.w3.org/2000/svg">
<g filter="url(#filter0_i)">
<path fill-rule="evenodd" clip-rule="evenodd" d="M0 51.25L27.0183 68.3333C53.105 85.4167 106.21 119.583 159.315 111.042C213.352 102.5 266.457 51.25 319.562 42.7083C372.667 34.1667 425.772 68.3333 478.877 68.3333C531.982 68.3333 586.018 34.1667 639.123 29.8958C692.228 25.625 745.333 51.25 798.438 64.0625C851.543 76.875 904.648 76.875 958.685 64.0625C1011.79 51.25 1064.9 25.625 1090.98 12.8125L1118 0V205H1090.98C1064.9 205 1011.79 205 958.685 205C904.648 205 851.543 205 798.438 205C745.333 205 692.228 205 639.123 205C586.018 205 531.982 205 478.877 205C425.772 205 372.667 205 319.562 205C266.457 205 213.352 205 159.315 205C106.21 205 53.105 205 27.0183 205H0V51.25Z" fill="#291755"/>
<path fill-rule="evenodd" clip-rule="evenodd" d="M0 51.25L27.0183 68.3333C53.105 85.4167 106.21 119.583 159.315 111.042C213.352 102.5 266.457 51.25 319.562 42.7083C372.667 34.1667 425.772 68.3333 478.877 68.3333C531.982 68.3333 586.018 34.1667 639.123 29.8958C692.228 25.625 745.333 51.25 798.438 64.0625C851.543 76.875 904.648 76.875 958.685 64.0625C1011.79 51.25 1064.9 25.625 1090.98 12.8125L1118 0V205H1090.98C1064.9 205 1011.79 205 958.685 205C904.648 205 851.543 205 798.438 205C745.333 205 692.228 205 639.123 205C586.018 205 531.982 205 478.877 205C425.772 205 372.667 205 319.562 205C266.457 205 213.352 205 159.315 205C106.21 205 53.105 205 27.0183 205H0V51.25Z" stroke="black"/>
</g>
<defs>
<filter id="filter0_i" x="0" y="0" width="1118" height="209" filterUnits="userSpaceOnUse" color-interpolation-filters="sRGB">
<feFlood flood-opacity="0" result="BackgroundImageFix"/>
<feBlend mode="normal" in="SourceGraphic" in2="BackgroundImageFix" result="shape"/>
<feColorMatrix in="SourceAlpha" type="matrix" values="0 0 0 0 0 0 0 0 0 0 0 0 0 0 0 0 0 0 127 0" result="hardAlpha"/>
<feOffset dy="4"/>
<feGaussianBlur stdDeviation="2"/>
<feComposite in2="hardAlpha" operator="arithmetic" k2="-1" k3="1"/>
<feColorMatrix type="matrix" values="0 0 0 0 0 0 0 0 0 0 0 0 0 0 0 0 0 0 0.25 0"/>
<feBlend mode="normal" in2="shape" result="effect1_innerShadow"/>
</filter>
</defs>
</svg>
