<svg width="650" height="321" viewBox="0 0 650 321" fill="none" xmlns="http://www.w3.org/2000/svg">
<path d="M461.45 286.908V93.3634H553.747V125.17H509.739V168.358H542.568V201.284H509.739V255.333H554.234V286.962L461.45 286.908Z" fill="url(#paint0_linear)"/>
<path d="M325.005 286.922V93.3634H377.904C391.723 93.3634 403.092 94.4733 412.012 96.6931C420.932 98.9129 428.059 102.588 433.392 107.719C438.794 112.986 442.657 119.534 444.592 126.701C446.725 134.207 447.797 143.682 447.806 155.126V224.941C447.806 236.458 446.735 245.969 444.592 253.475C442.663 260.666 438.811 267.244 433.42 272.552C428.087 277.719 420.961 281.413 412.041 283.633C403.12 285.852 391.793 286.962 378.058 286.962L325.005 286.922ZM374.179 254.239H378.781C382.144 254.332 385.505 253.997 388.778 253.242C391.017 252.731 392.994 251.468 394.356 249.681C395.593 247.992 396.42 246.056 396.778 244.018C397.189 241.138 397.369 238.232 397.316 235.325V144.496C397.37 141.607 397.191 138.72 396.778 135.858C396.42 133.883 395.591 132.013 394.356 130.399C392.961 128.68 390.988 127.485 388.778 127.015C385.498 126.309 382.139 125.998 378.781 126.087H374.179V254.239Z" fill="url(#paint1_linear)"/>
<path d="M107.07 289.606C95.6715 289.606 85.9379 288.141 77.8696 285.213C70.369 282.67 63.7428 278.151 58.7308 272.157C53.9208 266.165 50.4376 259.268 48.5001 251.904C46.2278 242.984 45.1541 233.817 45.3055 224.629V154.453C45.1566 145.233 46.2351 136.034 48.5141 127.084C50.4578 119.721 53.9404 112.826 58.745 106.83C63.7541 100.838 70.3817 96.3215 77.8838 93.7884C85.9427 90.8599 95.6763 89.3956 107.084 89.3956C115.148 89.2756 123.193 90.196 131.009 92.1325C137.131 93.5987 142.917 96.1705 148.064 99.714C152.515 102.956 156.223 107.061 158.956 111.77C161.767 116.564 163.776 121.76 164.909 127.166C166.157 133.198 166.766 139.337 166.724 145.489V162.924H118.624V141.617C118.624 138.812 118.54 136.568 118.385 134.884C118.164 132.9 117.74 130.942 117.118 129.041C116.585 127.007 115.329 125.224 113.572 124.004C111.747 122.967 109.686 122.387 107.574 122.315C105.462 122.243 103.364 122.682 101.469 123.594C100.06 124.324 98.8457 125.365 97.9232 126.633C97.0103 128.067 96.376 129.654 96.0515 131.312C95.657 133.013 95.375 134.737 95.2071 136.471C95.0946 137.95 95.0243 139.715 95.0243 141.741V237.275C95.0243 239.3 95.0243 241.079 95.2071 242.598C95.3691 244.333 95.6703 246.054 96.1078 247.744C96.4848 249.395 97.1359 250.976 98.0358 252.424C98.9318 253.723 100.158 254.774 101.596 255.475C103.479 256.358 105.555 256.778 107.644 256.697C109.732 256.616 111.768 256.036 113.572 255.01C115.333 253.772 116.589 251.969 117.118 249.92C117.735 247.993 118.159 246.013 118.385 244.007C118.54 242.324 118.624 240.08 118.624 237.275V215.022H166.724V232.348C166.781 238.539 166.192 244.72 164.966 250.795C163.819 256.272 161.811 261.543 159.012 266.423C156.294 271.215 152.586 275.409 148.12 278.739C142.991 282.378 137.213 285.06 131.079 286.65C123.259 288.726 115.176 289.722 107.07 289.606Z" fill="url(#paint2_linear)"/>
<path d="M277.439 285.331C269.434 288.177 259.77 289.606 248.447 289.615C237.125 289.623 227.476 288.195 219.499 285.331C212.089 282.862 205.513 278.45 200.488 272.574C195.668 266.693 192.201 259.863 190.326 252.549C188.107 243.643 187.059 234.493 187.208 225.326V153.661C187.059 144.493 188.107 135.344 190.326 126.437C192.189 119.13 195.642 112.305 200.446 106.426C205.467 100.542 212.044 96.124 219.457 93.6557C227.425 90.8087 237.074 89.3853 248.406 89.3853C259.738 89.3853 269.401 90.8087 277.397 93.6557C284.846 96.1224 291.464 100.539 296.533 106.426C301.382 112.3 304.89 119.123 306.821 126.437C309.076 135.338 310.138 144.489 309.981 153.661V225.326C310.138 234.497 309.076 243.648 306.821 252.549C304.89 259.866 301.382 266.694 296.533 272.574C291.471 278.446 284.869 282.857 277.439 285.331ZM248.447 256.711C250.727 256.804 252.981 256.211 254.906 255.013C256.637 253.794 257.897 252.04 258.484 250.031C259.152 248.092 259.62 246.093 259.882 244.063C260.097 241.844 260.195 239.614 260.176 237.385V141.493C260.195 139.262 260.097 137.033 259.882 134.813C259.624 132.8 259.156 130.819 258.484 128.899C257.889 126.916 256.628 125.184 254.906 123.986C252.981 122.789 250.727 122.197 248.447 122.289C246.527 122.229 244.626 122.674 242.94 123.576C241.581 124.295 240.413 125.318 239.53 126.56C238.661 128.001 238.072 129.589 237.796 131.24C237.451 132.86 237.232 134.503 237.139 136.154C237.139 137.522 237.139 139.22 237.139 141.493V237.385C237.139 239.574 237.139 241.326 237.139 242.654C237.228 244.329 237.447 245.994 237.796 247.636C238.072 249.288 238.661 250.876 239.53 252.318C240.531 253.713 241.869 254.844 243.425 255.61C244.981 256.377 246.707 256.755 248.447 256.711Z" fill="url(#paint3_linear)"/>
<path d="M542.967 41.5139C542.967 41.5139 548.158 59.6582 550.762 62.6822C553.367 65.7062 561.676 70.0307 561.676 70.0307L559.462 73.8259C559.462 73.8259 544.308 66.2657 541.674 60.2176C540.292 57.1943 539.246 54.0363 538.555 50.7977C538.134 48.56 536.419 42.9654 537.276 40.7428C537.854 39.2459 541.767 38.4596 542.967 41.5139Z" fill="#0254E4"/>
<g style="mix-blend-mode:multiply" opacity="0.65">
<g style="mix-blend-mode:multiply" opacity="0.65">
<path d="M542.967 41.5139C542.967 41.5139 548.158 59.6582 550.762 62.6822C553.367 65.7062 561.676 70.0307 561.676 70.0307L559.462 73.8259C559.462 73.8259 544.308 66.2657 541.674 60.2176C540.292 57.1943 539.246 54.0363 538.555 50.7977C538.134 48.56 536.419 42.9654 537.276 40.7428C537.854 39.2459 541.767 38.4596 542.967 41.5139Z" fill="#00A1CC"/>
</g>
</g>
<path d="M594.96 128.167L598.78 124.704C598.78 124.704 614.074 123.616 614.978 124.917C615.882 126.217 600.464 133.263 598.499 133.127C596.534 132.991 595.225 129.589 594.96 128.167Z" fill="#292C3D"/>
<path d="M566.93 77.9853C566.93 77.9853 581.383 74.417 582.521 76.7304C583.659 79.0438 598.719 124.707 598.719 124.707L594.9 128.169C594.9 128.169 578.795 89.6279 574.133 85.5908C569.471 81.5537 564.763 79.5729 566.93 77.9853Z" fill="#F9A57E"/>
<path d="M566.93 77.9853C566.93 77.9853 581.383 74.417 582.521 76.7304C583.659 79.0438 598.719 124.707 598.719 124.707L594.9 128.169C594.9 128.169 578.795 89.6279 574.133 85.5908C569.471 81.5537 564.763 79.5729 566.93 77.9853Z" fill="#E76F59"/>
<path d="M559.457 69.5924C560.509 69.3298 561.521 68.9333 562.466 68.413C563.214 67.9093 564.114 67.6643 565.024 67.7175C565.709 67.8082 571.259 70.0611 569.794 71.0591C569.311 71.3917 568.111 70.8171 567.627 70.6508C567.144 70.4845 566.255 70.0913 565.6 69.804C566.208 69.804 569.201 71.0136 568.889 71.6941C568.344 72.8886 565.288 71.2858 564.587 70.9078C565.132 70.9078 567.003 71.6789 567.003 72.4199C567.003 73.4632 564.774 72.5862 564.29 72.4199C563.977 72.2048 563.63 72.0414 563.262 71.9361C562.799 71.9404 562.339 72.0222 561.905 72.1779C561.119 72.284 560.321 72.284 559.536 72.1779C559.068 72.1779 557.976 72.1779 557.758 71.8453C557.652 71.5696 557.625 71.2719 557.677 70.9825C557.728 70.693 557.859 70.422 558.055 70.1972C558.468 69.894 558.947 69.687 559.457 69.5924Z" fill="#F9A57E"/>
<path d="M559.457 69.5924C560.509 69.3298 561.521 68.9333 562.466 68.413C563.214 67.9093 564.114 67.6643 565.024 67.7175C565.709 67.8082 571.259 70.0611 569.794 71.0591C569.311 71.3917 568.111 70.8171 567.627 70.6508C567.144 70.4845 566.255 70.0913 565.6 69.804C566.208 69.804 569.201 71.0136 568.889 71.6941C568.344 72.8886 565.288 71.2858 564.587 70.9078C565.132 70.9078 567.003 71.6789 567.003 72.4199C567.003 73.4632 564.774 72.5862 564.29 72.4199C563.977 72.2048 563.63 72.0414 563.262 71.9361C562.799 71.9404 562.339 72.0222 561.905 72.1779C561.119 72.284 560.321 72.284 559.536 72.1779C559.068 72.1779 557.976 72.1779 557.758 71.8453C557.652 71.5696 557.625 71.2719 557.677 70.9825C557.728 70.693 557.859 70.422 558.055 70.1972C558.468 69.894 558.947 69.687 559.457 69.5924Z" fill="#E8A393"/>
<path d="M584.512 45.3251L587.926 46.6859L576.233 74.0384L572.788 72.224L584.512 45.3251Z" fill="#292C3D"/>
<path d="M574.037 71.7549H551.789V75.1118H574.037V71.7549Z" fill="#292C3D"/>
<path d="M512.458 56.1645C515.42 54.5164 515.919 52.6868 514.282 46.6538C513.671 43.9245 514.007 41.0757 515.24 38.5513C516.472 36.027 518.531 33.9689 521.095 32.6979C524.136 31.4731 526.816 30.9438 528.672 27.7838C530.527 24.6236 527.005 17.9254 532.882 12.9356C537.153 9.32194 543.296 12.21 543.296 12.21C544.621 11.4993 545.168 18.9687 545.261 24.5934C537.824 35.6161 539.944 50.0408 542.641 62.394C542.716 62.6768 542.811 62.9546 542.922 63.2256C542.33 72.7816 541.862 80.7045 541.862 80.7045C541.862 80.7045 523.995 90.5176 511.85 82.1108C499.705 73.7039 506.487 59.4758 512.458 56.1645Z" fill="#292C3D"/>
<path d="M564.999 125.9L569.535 128.426C569.535 128.426 575.101 142.291 574.072 143.546C573.043 144.801 561.6 132.553 561.148 130.678C560.696 128.803 563.673 126.566 564.999 125.9Z" fill="#292C3D"/>
<path d="M559.212 77.151C559.212 77.151 588.367 79.1318 591.079 81.6871C593.792 84.2424 569.034 128.167 569.034 128.167L564.964 125.899C564.964 125.899 571.092 105.002 572.682 100.194C574.273 95.386 577.36 89.6101 576.767 88.7633C576.174 87.9167 546.818 92.2863 547.036 84.2273C547.254 76.1682 559.212 77.151 559.212 77.151Z" fill="#F9A57E"/>
<path d="M544.837 29.478C544.837 29.478 541.718 37.5522 543.636 43.5852L533.439 41.181C533.439 41.181 537.603 27.6636 539.395 25.3502C541.188 23.0368 544.837 29.478 544.837 29.478Z" fill="#F9A57E"/>
<path d="M544.837 29.478C544.837 29.478 541.718 37.5522 543.636 43.5852L533.439 41.181C533.439 41.181 537.603 27.6636 539.395 25.3502C541.188 23.0368 544.837 29.478 544.837 29.478Z" fill="#E76F59"/>
<path d="M545.881 18.9384C545.881 18.9384 549.856 20.768 550.807 22.3254C551.758 23.8828 550.916 26.0147 550.994 27.436C551.199 28.7113 551.287 30.0015 551.259 31.2917C551.041 31.6395 549.576 31.2917 549.341 31.6092C549.108 31.9268 547.206 33.1213 546.614 34.3611C546.021 35.601 545.241 35.7825 543.855 35.1172C542.466 34.4519 537.182 27.693 537.119 24.533C537.057 21.3728 541.968 17.623 545.881 18.9384Z" fill="#F9A57E"/>
<path d="M542.527 14.6137C543.386 16.2347 544.07 17.9372 544.569 19.6941C544.756 21.1154 543.354 25.3189 542.527 25.8783C541.7 26.4377 542.402 21.1759 540.298 22.8543C538.193 24.5326 540.423 27.4961 540.298 28.1161C540.098 28.84 539.682 29.4905 539.102 29.9856C538.523 30.4806 537.805 30.7982 537.039 30.8983C534.872 31.0797 531.301 20.6164 533.656 18.0157C536.01 15.415 540.032 14.6137 542.527 14.6137Z" fill="#292C3D"/>
<path d="M530.292 68.4723L543.81 67.4744C543.81 67.4744 550.841 75.0345 557.841 75.0345H581.507C580.593 81.2093 578.248 87.1027 574.648 92.2716C574.648 92.2716 551.979 93.8895 540.972 93.0125C529.964 92.1356 519.504 80.3871 530.292 68.4723Z" fill="#4D505E"/>
<path d="M529.026 70.0164C529.419 69.4908 529.841 68.986 530.289 68.5043L543.806 67.5064C543.806 67.5064 550.651 74.9153 557.511 75.0665C549.232 75.8981 533.407 77.6823 529.026 70.0164Z" fill="#3D3848"/>
<g style="mix-blend-mode:multiply" opacity="0.32">
<g style="mix-blend-mode:multiply" opacity="0.32">
<path d="M575.269 76.6394C571.824 76.3219 568.471 75.5205 565.088 75.1274H579.946C578.543 75.838 577.81 76.8814 575.269 76.6394Z" fill="#CA0045"/>
</g>
</g>
<path d="M534.736 36.6137C537.435 37.6814 540.212 38.5506 543.045 39.2144C543.045 39.2144 547.411 48.5586 549.11 51.0837C550.81 53.6089 544.807 63.3009 544.433 67.4741C544.433 67.4741 540.816 70.8308 529.871 68.7744C529.902 68.7744 527.035 42.5106 534.736 36.6137Z" fill="#0254E4"/>
<g style="mix-blend-mode:multiply" opacity="0.65">
<g style="mix-blend-mode:multiply" opacity="0.65">
<path d="M533.063 42.2109C534.152 41.8151 535.346 41.7831 536.456 42.12C537.566 42.4568 538.527 43.1433 539.191 44.0708C540.344 46.3539 539.191 50.4212 539.299 52.8859C539.357 55.7723 539.692 58.6474 540.296 61.4742C541.017 63.8322 542.232 66.0202 543.867 67.9002C542.449 68.7167 538.395 70.3648 529.836 68.7772C529.836 68.7772 528.089 52.7497 530.989 42.9367C531.831 42.6797 532.564 42.3772 533.063 42.2109Z" fill="#00A1CC"/>
</g>
</g>
<path d="M557.34 69.593C558.391 69.3252 559.401 68.9289 560.349 68.4137C561.089 67.9079 561.986 67.6624 562.891 67.7182C563.592 67.8089 569.126 70.0618 567.661 71.0597C567.178 71.3924 565.978 70.8178 565.51 70.6514C565.042 70.4851 564.137 70.092 563.482 69.8048C564.075 69.8048 567.084 71.0144 566.772 71.6947C566.211 72.8893 563.17 71.2866 562.469 70.9086C562.999 70.9086 564.886 71.6797 564.886 72.4205C564.886 73.4638 562.641 72.5869 562.157 72.4205C561.85 72.2058 561.507 72.0423 561.144 71.9367C560.676 71.9422 560.212 72.0239 559.772 72.1787C558.986 72.2846 558.188 72.2846 557.403 72.1787C556.95 72.1787 555.843 72.1787 555.641 71.8459C555.536 71.5704 555.507 71.2727 555.56 70.9832C555.612 70.6937 555.742 70.4227 555.937 70.1978C556.349 69.8923 556.83 69.6851 557.34 69.593Z" fill="#F9A57E"/>
<path d="M558.275 69.4424L557.09 73.7819C557.09 73.7819 527.811 70.4857 527.14 65.4507C526.47 60.4157 528.325 36.9793 535.388 39.4136C542.45 41.848 535.465 58.8431 536.573 60.1737C537.68 61.5043 558.275 69.4424 558.275 69.4424Z" fill="#0254E4"/>
<path d="M542.232 12.6482C543.292 11.9305 544.566 11.5712 545.856 11.6259C547.147 11.6804 548.382 12.1461 549.373 12.9505C553.006 15.7932 552.881 20.0722 555.874 19.6942C555.874 19.6942 553.894 24.6536 549.561 23.4742C545.226 22.2949 540.736 15.6117 542.232 12.6482Z" fill="#292C3D"/>
<path d="M30.2226 60.0714C29.3865 59.7135 28.6649 59.1443 28.1334 58.4233C27.9463 58.0557 27.6806 57.731 27.3539 57.4707C26.9914 57.1612 26.6624 56.8167 26.3718 56.4426C26.1005 56.0489 25.723 55.7351 25.2805 55.5353C24.7036 55.369 24.8751 56.0948 25.0621 56.5635C25.2493 57.0322 26.7304 58 26.5432 58.5443C26.3562 59.0886 24.6412 57.8487 24.2982 57.5917C23.5031 57.002 23.5967 56.2762 23.2225 55.4748C23.0042 55.0061 22.7548 54.855 22.443 55.369C22.1311 55.8831 22.443 56.2309 22.5676 56.624C22.8564 57.4475 23.3489 58.1899 24.002 58.7861C23.3625 58.2586 22.8332 57.6171 22.443 56.8962C22.2246 56.4879 21.5855 54.5978 20.8839 54.8851C19.4963 55.4598 22.1934 59.1036 22.9418 59.4212C22.2839 58.9374 21.7148 58.3495 21.2581 57.6824C20.9619 57.2892 20.307 56.3519 19.9952 57.1532C19.5275 58.3477 21.8037 59.7387 22.7236 60.5401C22.0182 60.1729 21.3633 59.7207 20.7748 59.1944C19.9484 58.5593 19.7614 59.3608 20.4942 60.1621C20.8607 60.5297 21.2569 60.8686 21.679 61.1752C23.0808 62.2581 24.8136 62.8591 26.6056 62.8838C27.3383 62.9594 28.6168 63.8364 29.1313 63.4734C30.129 62.7931 30.0511 61.0845 30.2226 60.0714Z" fill="#E8A393"/>
<path d="M29.2102 58.0606C29.2102 58.0606 45.0034 62.3244 46.5624 62.2186C48.1215 62.1128 51.8631 48.6104 53.3443 41.9575C53.4846 41.3376 55.5893 41.3074 58.0215 39.3568C59.0036 38.5555 61.9191 40.0978 62.8856 39.3568C63.8042 40.2836 64.4143 41.4568 64.6367 42.724C64.8591 43.9913 64.6836 45.2941 64.1329 46.4633C60.5315 54.1898 57.4446 68.9925 49.1504 69.1437C38.2371 69.3554 27.0742 63.8063 27.0742 63.8063L29.2102 58.0606Z" fill="#DA395B"/>
<path d="M25.7938 59.9059C26.0693 59.4662 26.3192 59.012 26.5423 58.5452C26.7293 58.0008 25.2638 57.0331 25.0611 56.5644C24.8585 56.0956 24.7025 55.3699 25.2794 55.5362C25.7219 55.736 26.0994 56.0498 26.3707 56.4434C26.6613 56.8176 26.9905 57.1621 27.353 57.4716C27.6795 57.7319 27.9452 58.0566 28.1325 58.4242C28.3126 58.705 28.5392 58.9553 28.8029 59.165C27.8549 59.5881 26.8351 59.8393 25.7938 59.9059Z" fill="#E8A393"/>
<path d="M21.7567 106.854C21.7567 106.854 20.2913 113.446 18.9194 114.066C17.5473 114.686 3.25087 111.284 2.42457 109.711C1.59828 108.139 2.76755 106.506 5.82329 106.687C8.56722 106.778 10.3757 107.776 12.6052 107.443C14.554 107.171 16.4716 103.573 16.4716 103.573L21.7567 106.854Z" fill="#292C3D"/>
<path d="M46.0651 121.853C46.0651 121.853 49.7289 127.598 49.1832 128.96C48.6376 130.32 35.9001 137.502 34.1852 136.928C32.4702 136.353 32.1273 134.388 34.419 132.391C36.4614 130.608 38.4726 130.108 39.8445 128.37C41.2165 126.63 39.8445 122.972 39.8445 122.972L46.0651 121.853Z" fill="#292C3D"/>
<path d="M67.4817 73.1647C67.4817 73.1647 61.6976 76.0678 59.0161 75.7351C56.3344 75.4025 33.2916 77.1564 30.5944 79.3036C27.8973 81.4507 38.9198 124.528 38.9198 124.528L48.0559 123.016C48.0559 123.016 44.7819 91.5207 45.3275 91.2636C45.8732 91.0066 59.6553 91.0973 83.1501 91.0973C88.8875 91.0973 95.2953 79.4094 88.03 71.2293L67.4817 73.1647Z" fill="#DBDF01"/>
<g style="mix-blend-mode:multiply" opacity="0.65">
<g style="mix-blend-mode:multiply" opacity="0.65">
<path d="M34.5751 82.7981C35.6918 80.897 36.5512 78.8641 37.1319 76.7499C44.3758 75.9362 51.6676 75.5927 58.9587 75.7218C61.6402 76.0545 67.4244 73.1514 67.4244 73.1514L68.7495 73.0304C67.0969 75.3287 65.1481 77.3246 62.7316 77.8387C59.8162 78.4737 56.776 78.625 53.9074 79.3506C48.9496 80.6207 44.0385 83.1458 41.8247 87.9389C38.8979 93.8273 36.4379 99.9232 34.4659 106.174C32.9069 99.642 31.4258 92.7925 30.5371 87.3644C32.3613 86.5781 33.6084 84.3404 34.5751 82.7981Z" fill="#CCC400"/>
</g>
</g>
<path d="M65.0993 68.3574C65.0993 68.3574 37.6756 69.8694 35.0719 72.4399C32.4684 75.0103 14.8042 104.389 14.8042 104.389L22.0694 109.484C22.0694 109.484 36.5374 88.8 43.4909 80.7561C45.079 78.9249 47.2917 77.7069 49.7271 77.3237C53.2206 76.7225 56.7435 76.2935 60.2819 76.0385C63.1979 76.0462 66.0137 75.0067 68.1862 73.1203L65.0993 68.3574Z" fill="#DBDF01"/>
<path d="M58.0499 27.2902C58.8825 26.8026 59.643 26.2074 60.3105 25.5211C60.9809 28.0765 62.5711 32.7638 65.6113 34.9562C65.6113 34.9562 60.2169 37.8592 55.4619 37.3906C55.4619 37.3906 55.2747 31.2215 53.9028 28.3185C55.3493 28.2968 56.7701 27.9445 58.0499 27.2902Z" fill="#F9A57E"/>
<path d="M58.0499 27.2902C58.8825 26.8026 59.643 26.2074 60.3105 25.5211C60.9809 28.0765 62.5711 32.7638 65.6113 34.9562C65.6113 34.9562 60.2169 37.8592 55.4619 37.3906C55.4619 37.3906 55.2747 31.2215 53.9028 28.3185C55.3493 28.2968 56.7701 27.9445 58.0499 27.2902Z" fill="#E76F59"/>
<path d="M53.4381 11.413C53.4381 11.413 46.4066 11.8363 44.8944 13.7869C44.1685 15.0607 43.7595 16.4814 43.7 17.9358C43.6404 19.3901 43.932 20.8378 44.5514 22.1635C45.7831 24.2501 44.1772 27.7882 44.4267 28.6199C44.6762 29.4515 46.8432 28.9827 47.0147 29.1944C47.1862 29.406 48.8856 33.3978 51.9101 33.0652C56.1664 32.5662 60.142 27.6219 61.0306 24.6886C61.9192 21.7552 59.8925 10.5814 53.4381 11.413Z" fill="#F9A57E"/>
<path d="M41.8872 16.0246C42.2656 15.475 42.5695 14.8804 42.7915 14.2555C42.7601 13.8478 42.7601 13.4384 42.7915 13.0307C43.1033 11.7758 42.9786 10.9896 45.5043 9.03905C46.7074 8.24003 48.0824 7.71722 49.5249 7.51025C50.9674 7.30329 52.4395 7.41761 53.8296 7.84454C54.7901 8.12931 55.6847 8.59138 56.4644 9.20536C56.6827 9.40193 57.3843 9.88578 57.3843 10.1882C57.3843 10.4906 56.5268 11.1105 56.3086 11.3827C55.9389 11.9021 55.6106 12.448 55.3263 13.0157C53.3619 16.3421 49.8384 20.4246 45.4419 18.4741C44.8544 18.2118 44.2819 17.9191 43.7269 17.597C43.5953 19.09 43.8471 20.5913 44.4596 21.9668C43.6232 21.6918 42.9012 21.1613 42.4018 20.4549C41.93 19.8218 41.6347 19.0814 41.5445 18.3052C41.4544 17.5291 41.5725 16.7436 41.8872 16.0246Z" fill="#292C3D"/>
<path d="M55.0592 10.8992C55.8929 10.2237 56.9114 9.79819 57.9902 9.67447C58.7977 9.55528 59.6233 9.68714 60.3486 10.0511C61.0741 10.4151 61.662 10.9925 62.0282 11.7006C62.6014 12.5629 63.082 13.48 63.4625 14.4374C64.1038 15.8956 64.4377 17.4637 64.4447 19.049C64.5126 20.7774 64.1601 22.4971 63.4157 24.0689C62.6985 25.4599 60.9525 27.3953 59.7052 27.3803C59.2219 27.3803 57.4446 24.6586 57.2575 23.8573C57.0704 23.0558 57.4446 22.9198 57.8966 22.3452C58.6917 21.4229 59.3778 19.926 58.1773 19.0187C56.4623 17.7336 54.8253 19.2153 55.0592 21.8009C55.0592 21.8009 54.8097 23.313 54.2953 23.313C53.7808 23.313 49.2439 17.4614 55.0592 10.8992Z" fill="#292C3D"/>
<path d="M92.557 73.7549C92.557 73.7549 84.372 82.313 62.7947 76.4161C62.2291 72.853 61.2187 69.37 59.7857 66.0435C57.4939 60.9026 53.7834 50.8024 53.0507 45.3137C52.2244 39.1296 55.3893 35.9391 55.3893 35.9391C55.3893 35.9391 59.4583 38.8725 64.4162 33.8979C67.9917 34.5519 71.3693 35.979 74.2978 38.0732C77.2264 40.1673 79.6307 42.8747 81.3319 45.9941C87.5681 56.8958 92.557 73.7549 92.557 73.7549Z" fill="#FF4C6B"/>
<path d="M62.9147 42.773C62.9147 42.5159 63.055 42.2438 63.1173 41.9716C68.2778 44.4211 67.6231 49.2596 66.3914 56.5476C65.4247 62.1572 62.6652 71.0176 62.104 72.9983C61.5323 70.6208 60.7552 68.2941 59.7809 66.043C58.7208 63.6691 57.3645 60.2369 56.1328 56.6987C57.9429 54.0106 59.3792 51.1026 60.4046 48.05C61.0594 46.2204 62.3846 44.663 62.9147 42.773Z" fill="#DA395B"/>
<path d="M27.652 54.9449L9.52031 44.4514C5.40517 48.6038 2.48134 53.7277 1.03906 59.3146L21.6186 68.659C21.6186 68.659 24.8302 61.3256 27.652 54.9449Z" fill="#515151"/>
<path d="M13.6382 61.5083C18.2088 60.1546 22.0772 57.1653 24.4581 53.1467L27.6542 55.0066C24.8323 61.3873 21.6206 68.7206 21.6206 68.7206L6.60693 61.9013C8.94989 62.3099 11.3593 62.1753 13.6382 61.5083Z" fill="#515151"/>
<path d="M27.714 65.756C26.8055 65.8767 25.8803 65.762 25.0324 65.4234C24.6684 65.2143 24.266 65.0756 23.8476 65.0151C23.3732 64.9419 22.908 64.8203 22.4599 64.6522C22.0146 64.4615 21.5252 64.3885 21.0413 64.4406C20.4645 64.5918 21.0412 65.1209 21.4154 65.4234C21.7896 65.7257 23.6136 65.7862 23.754 66.3457C23.8943 66.9051 21.7584 66.7388 21.3374 66.6935C20.3241 66.5876 20.0123 65.9374 19.2484 65.4384C18.8118 65.1512 18.5157 65.1512 18.5467 65.756C18.5779 66.3608 18.9989 66.4969 19.3262 66.754C20.0193 67.307 20.8452 67.6815 21.7272 67.8426C20.8954 67.7391 20.0942 67.4715 19.373 67.0563C18.9677 66.8295 17.393 65.5444 16.9565 66.1492C16.0991 67.3436 20.3865 69.0522 21.2284 69.0068C20.3933 68.9115 19.5782 68.6922 18.8118 68.3566C18.3441 68.1752 17.2528 67.7065 17.4398 68.5532C17.7049 69.8082 20.4021 69.8082 21.6182 70.0652C20.8203 70.1242 20.0179 70.0785 19.2328 69.9292C18.1726 69.8082 18.4533 70.5944 19.5134 70.8968C19.9655 71.0178 20.8853 71.1236 21.0724 71.1539C22.8493 71.3506 24.6432 70.9676 26.1705 70.0652C26.8253 69.7477 28.3843 69.8385 28.6339 69.2639C29.1171 68.0996 28.1038 66.754 27.714 65.756Z" fill="#F9A57E"/>
<path d="M27.2899 65.0619L26.7598 70.9738C26.7598 70.9738 52.9051 72.9999 55.8985 71.1553C58.5407 69.316 60.4419 66.6437 61.2773 63.5952C63.1793 58.1972 70.6316 43.2887 63.912 41.0207C61.8073 40.31 59.0167 40.3252 57.6758 43.0014C54.5577 49.0495 51.1433 62.3099 50.2548 62.8694C48.9295 63.7313 27.2899 65.0619 27.2899 65.0619Z" fill="#FF4C6B"/>
<path d="M162.983 193.974C162.983 193.974 166.234 203.236 168.152 207.376C178.828 230.291 159.066 227.368 151.559 226.283C144.052 225.197 135.483 222.446 135.946 216.545C136.272 212.576 138.775 212.073 139.795 210.724C140.815 209.374 138.83 207.191 139.7 203.884C140.57 200.576 146.241 199.915 147.357 199.001C148.472 198.089 150.743 195.562 149.641 190.786C148.54 186.01 148.05 183.443 151.233 180.321C154.415 177.199 159.393 178.562 159.393 178.562L162.983 193.974Z" fill="#292C3D"/>
<path d="M200.608 230.439C199.892 229.987 197.108 231.26 195.1 231.793C193.381 232.093 191.624 232.226 189.865 232.187C189.813 232.966 189.683 233.74 189.479 234.503C190.531 234.603 191.588 234.661 192.648 234.676C193.652 234.676 195.517 234.422 196.176 234.317C196.932 234.161 197.732 234.231 198.429 234.514C200.665 236.02 201.913 236.124 202.214 235.591C202.214 235.498 200.45 234.213 199.862 233.693C200.838 234.41 203.248 235.823 203.749 235.382C204.251 234.943 201.884 233.391 200.881 232.719C201.884 233.415 204.467 235.152 205.083 235.036C206.848 234.665 201.325 230.891 200.608 230.439Z" fill="#F9A57E"/>
<path d="M209.987 234.775H182.642V238.1H209.987V234.775Z" fill="#292C3D"/>
<path d="M191.757 231.04L190.813 234.775C190.813 234.775 178.322 233.464 174.06 231.63C169.799 229.795 165.551 220.214 165.551 220.214L168.799 208.182C168.799 208.182 175.087 223.91 177.28 225.824C179.473 227.737 191.757 231.04 191.757 231.04Z" fill="#FF4C6B"/>
<path d="M241.659 189.346H189.709C188.323 189.346 187.2 190.441 187.2 191.792V222.356C187.2 223.707 188.323 224.803 189.709 224.803H241.659C243.044 224.803 244.168 223.707 244.168 222.356V191.792C244.168 190.441 243.044 189.346 241.659 189.346Z" fill="#93EAF3"/>
<path d="M190.282 222.358V191.791C190.282 191.142 190.557 190.52 191.048 190.062C191.538 189.603 192.204 189.346 192.897 189.346H189.813C189.12 189.346 188.455 189.603 187.966 190.062C187.475 190.52 187.2 191.142 187.2 191.791V222.358C187.2 223.006 187.475 223.628 187.966 224.087C188.455 224.546 189.12 224.803 189.813 224.803H192.897C192.204 224.803 191.538 224.546 191.048 224.087C190.557 223.628 190.282 223.006 190.282 222.358Z" fill="#292C3D"/>
<path d="M216.528 233.667C216.528 233.667 217.698 222.77 212.619 219.066C212.619 219.066 211.449 218.15 213.362 217.086C215.275 216.021 220.533 214.796 222.336 217.988C224.139 221.181 225.323 226.771 224.565 233.667H216.528Z" fill="#292C3D"/>
<path d="M146.182 259.152H142.764V320.095H146.182V259.152Z" fill="#AFEAF0"/>
<path d="M189.479 259.152H187.2V320.095H189.479V259.152Z" fill="#AFEAF0"/>
<path d="M196.314 255.828H137.068V261.368H196.314V255.828Z" fill="#292C3D"/>
<path d="M169.077 292.394C169.077 292.394 163.233 297.657 163.273 298.415C163.313 299.173 173.27 316.715 175.001 316.77C176.732 316.825 177.144 313.793 176.866 312.637C176.586 311.479 173.377 294.723 173.377 294.723L169.077 292.394Z" fill="#292C3D"/>
<path d="M160.07 295.717C160.07 295.717 154.102 301.033 154.158 301.711C154.214 302.389 165.214 318.987 167.031 318.987C168.847 318.987 169.183 316.037 168.862 315.001C168.54 313.963 164.669 297.871 164.669 297.871L160.07 295.717Z" fill="#292C3D"/>
<path d="M164.363 237.941C164.363 237.941 172.038 241.448 180.862 244.756C186.464 246.855 194.292 249.605 194.029 255.383C193.849 259.594 176.201 300.15 176.201 300.15L168.194 296.298C168.194 296.298 182.868 262.157 182.605 259.847C182.343 257.535 180.655 259.581 166.133 258.319C151.611 257.057 147.226 254.4 147.324 247.784C147.42 241.17 151.224 231.923 157.088 229.572C162.952 227.221 164.363 237.941 164.363 237.941Z" fill="#4D505E"/>
<path d="M164.229 237.862C164.229 237.862 167.138 241.42 175.893 244.712C181.45 246.801 188.352 250.622 188.339 254.298C188.339 258.49 172.037 297.934 172.037 297.934L168.03 295.99C168.03 295.99 182.589 262.008 182.329 259.706C182.068 257.406 180.394 259.442 165.986 258.186C151.577 256.93 147.227 254.285 147.324 247.701C147.419 241.115 151.193 231.913 157.011 229.572C162.83 227.231 164.229 237.862 164.229 237.862Z" fill="#3D3848"/>
<path d="M159.758 232.559C159.758 232.559 162.097 241.933 167.681 244.237C173.264 246.541 186.074 249.017 186.059 254.95C186.059 259.195 166.943 301.258 166.943 301.258L157.196 296.839C157.196 296.839 170.131 262.811 169.727 260.48C169.324 258.151 170.688 259.302 156.055 258.446C141.421 257.588 139.43 254.91 139.346 248.241C139.263 241.572 148.23 232.559 148.23 232.559C150.056 231.828 152.015 231.451 153.994 231.451C155.972 231.451 157.932 231.828 159.758 232.559Z" fill="#4D505E"/>
<path d="M164.084 192.714C164.084 192.714 161.787 201.647 166.051 206.22C166.051 206.22 171.742 213.486 162.769 214.734C153.797 215.982 154.961 204.8 154.961 204.8C154.961 204.8 156.497 192.464 154.158 187.129C154.158 187.129 160.001 190.178 164.084 192.714Z" fill="#E76F59"/>
<path d="M158.017 179.546C158.017 179.546 170.024 180.153 170.105 183.124C170.186 186.095 169.092 188.04 169.483 190.632C170.348 196.223 167.106 202.354 165.688 202.61C163.487 203.002 156.031 199.721 154.882 195.197C153.735 190.673 153.424 177.736 158.017 179.546Z" fill="#F9A57E"/>
<path d="M169.227 232.156C169.227 232.156 171.775 232.448 172.31 232.448C172.843 232.448 179.897 228.785 180.65 229.281C181.404 229.777 188.554 234.369 188.335 235.323C188.114 236.277 186.129 235.679 182.335 232.703C182.335 232.703 187.389 236.023 186.444 236.824C185.499 237.626 181.075 233.912 181.075 233.912C181.075 233.912 185.623 237.066 184.541 237.727C183.458 238.388 179.445 234.674 179.445 234.674C179.445 234.674 182.581 237.498 182.185 237.969C181.787 238.439 179.76 237.626 177.597 235.755C177.597 235.755 177.199 235.553 176.049 236.124C174.898 236.696 167.831 235.59 167.831 235.59L169.227 232.156Z" fill="#F9A57E"/>
<path d="M171.067 189.071C171.067 189.071 162.863 191.048 160.187 184.386C158.067 179.112 158.862 178.481 158.862 178.481C158.862 178.481 163.394 174.75 168.721 179.813C172.219 183.138 171.067 189.071 171.067 189.071Z" fill="#292C3D"/>
<path d="M159.358 178.265C159.358 178.265 163.881 182.181 161.38 185.908C159.111 189.254 160.609 191.056 160.128 193.318C159.802 193.171 159.511 192.957 159.274 192.69C159.037 192.425 158.859 192.112 158.753 191.774C158.52 190.731 158.176 188.075 156.747 188.468C155.318 188.86 153.997 190.581 156.747 192.79C157.164 193.652 157.344 194.607 157.266 195.559C157.189 196.51 156.858 197.425 156.307 198.21C156.307 198.21 149.008 192.031 151.125 185.08C153.242 178.129 159.358 178.265 159.358 178.265Z" fill="#292C3D"/>
<path d="M165.172 204.903C165.172 204.903 165.755 209.236 164.105 210.017C162.456 210.797 156.614 202.643 156.614 202.643C156.614 202.643 148.654 205.805 146.848 207.191C145.043 208.577 147.673 221.847 147.673 221.847C147.673 221.847 142.129 237.767 142.825 241.173C143.522 244.578 167.759 240.514 167.759 240.514C167.759 240.514 170.091 224.269 171 221.847C171.91 219.424 173.061 217.997 171.895 214.485C170.247 209.519 169.806 208.254 169.806 208.254C168.401 206.973 166.847 205.849 165.172 204.903Z" fill="#FF4C6B"/>
<path d="M150.487 218.995C148.713 216.647 149.78 212.742 147.91 210.326C147.34 209.603 146.76 208.892 146.163 208.182C145.706 212.073 147.549 221.548 147.549 221.548C147.549 221.548 142.144 237.699 142.824 241.153C143.502 244.607 167.13 240.483 167.13 240.483C167.13 240.483 169.139 225.971 170.109 222.162C169.499 223.05 164.719 228.784 159.48 227.978C156.445 227.541 154.02 223.718 150.487 218.995Z" fill="#DA395B"/>
<path d="M154.715 190.454C154.715 190.454 154.565 192.142 156.079 192.526C156.706 192.692 156.651 194.534 157.156 196.363C158.111 199.893 157.498 202.284 154.702 203.308C151.849 204.085 149.13 205.244 146.63 206.748C143.398 208.871 145.47 200.02 149.548 197.795C153.625 195.57 154.715 190.454 154.715 190.454Z" fill="#292C3D"/>
<path d="M229.035 238.099H211.433C211.187 238.103 210.944 238.051 210.729 237.946C210.512 237.841 210.331 237.687 210.201 237.499C210.07 237.312 209.998 237.097 209.988 236.876C209.977 236.656 210.032 236.436 210.145 236.24L211.193 234.381C211.31 234.167 211.491 233.986 211.716 233.859C211.941 233.733 212.2 233.667 212.466 233.667H228.03C228.295 233.667 228.555 233.733 228.78 233.859C229.005 233.986 229.187 234.167 229.304 234.381L230.336 236.24C230.45 236.437 230.504 236.657 230.494 236.879C230.483 237.101 230.408 237.317 230.277 237.505C230.145 237.693 229.962 237.847 229.744 237.951C229.525 238.055 229.281 238.105 229.035 238.099Z" fill="#292C3D"/>
<path d="M254.421 238.1H105.166V242.532H254.421V238.1Z" fill="#7695A8"/>
<path d="M112.002 240.315H110.862V320.095H112.002V240.315Z" fill="#7695A8"/>
<path d="M249.865 240.315H247.586V320.095H249.865V240.315Z" fill="#7695A8"/>
<path d="M171.249 232.059L170.819 236.915C170.819 236.915 141.749 237.206 137.361 236.651C132.973 236.097 130.999 230.396 133.831 225.379C136.663 220.364 145.078 207.363 148.755 207.086C152.432 206.809 154.553 211.745 151.506 217.104C148.46 222.462 142.957 227.663 144.151 228.508C145.347 229.353 171.249 232.059 171.249 232.059Z" fill="#FF4C6B"/>
<path d="M289.02 6.51794H228.938C227.281 6.51794 225.938 7.81666 225.938 9.4187V46.831C225.938 48.433 227.281 49.7317 228.938 49.7317H289.02C290.677 49.7317 292.02 48.433 292.02 46.831V9.4187C292.02 7.81666 290.677 6.51794 289.02 6.51794Z" fill="#0254E4"/>
<path d="M288.602 9.84222H229.356V46.4078H288.602V9.84222Z" fill="white"/>
<path d="M254.421 20.9226V34.2192L268.094 27.5668L254.421 20.9226Z" fill="#FF4C6B"/>
<path d="M618.219 187.129H610.088C610.088 187.129 608.905 197.73 606.794 198.989C606.794 198.989 604.174 211.507 614.161 211.507C626.245 211.507 621.529 198.989 621.529 198.989C619.402 197.787 618.219 187.129 618.219 187.129Z" fill="#E76F59"/>
<path d="M624.467 189.268C623.383 188.061 622.083 189.914 622.083 189.914C622.083 189.914 623.875 183.036 622.083 180.089C620.293 177.142 614.457 178.686 614.457 178.686C614.457 178.686 608.679 177.099 606.844 180.089C605.01 183.079 606.844 189.914 606.844 189.914C606.844 189.914 605.53 188.061 604.447 189.268C603.363 190.475 606.238 193.478 606.902 193.927C606.902 193.927 611.092 201.535 614.457 201.535C617.823 201.535 622.026 193.927 622.026 193.927C622.676 193.548 625.566 190.489 624.467 189.268Z" fill="#F9A57E"/>
<path d="M613.32 181.65C613.32 181.65 608.744 182.379 608.235 184.595C608.081 185.697 608.163 186.816 608.475 187.89C608.72 189.094 608.851 190.315 608.864 191.538C608.766 191.564 608.661 191.569 608.56 191.552C608.458 191.536 608.363 191.499 608.28 191.443C607.686 190.959 607.18 190.394 606.78 189.769C605.91 188.621 604.649 188.809 604.289 189.54C604.289 189.54 603.269 178.732 608.325 178.3C613.38 177.868 613.32 181.65 613.32 181.65Z" fill="#292C3D"/>
<path d="M615.599 181.65C615.599 181.65 620.106 182.379 620.693 184.595C620.84 185.698 620.753 186.816 620.437 187.89C620.19 189.094 620.059 190.315 620.046 191.538C620.147 191.564 620.255 191.569 620.358 191.552C620.463 191.536 620.56 191.499 620.647 191.443C621.234 190.952 621.74 190.388 622.15 189.769C623.021 188.621 624.268 188.809 624.628 189.538C624.628 189.538 625.651 178.732 620.602 178.3C615.553 177.868 615.599 181.65 615.599 181.65Z" fill="#292C3D"/>
<path d="M622.12 178.944C622.095 178.318 621.886 177.71 621.518 177.189C621.149 176.668 620.636 176.253 620.032 175.991C618.459 175.3 616.745 174.942 615.011 174.942C613.276 174.942 611.562 175.3 609.988 175.991C606.528 177.634 605.477 178.006 604.47 177.454C603.463 176.902 604.09 176.363 604.09 176.363C604.09 176.363 601.827 176.363 601.93 179.677C602.032 182.989 606.309 187.129 612.032 187.129C620.661 187.129 623.449 181.429 622.12 178.944Z" fill="#292C3D"/>
<path d="M621.501 199.318C621.087 209.664 614.445 208.593 614.445 208.593C614.445 208.593 607.818 209.664 607.417 199.318C607.417 199.318 596.825 202.099 591.673 205.52C593.078 211.787 593.86 218.172 594.005 224.585L600.031 247.376L614.431 248.072L628.844 247.376L634.899 224.585C635.05 218.171 635.836 211.787 637.247 205.52C632.094 202.169 621.501 199.318 621.501 199.318Z" fill="#AFEAF0"/>
<path d="M633.621 211.712C626.93 215.099 623.672 222.897 617.185 226.726C610.45 230.68 605.694 222.689 602.422 218.542C599.699 214.934 595.979 212.116 591.673 210.399C592.532 215.131 593.019 219.92 593.126 224.721L599.222 247.381L613.854 248.072L628.5 247.381L634.653 224.721C634.767 219.993 635.254 215.28 636.107 210.62C635.221 210.965 634.391 211.325 633.621 211.712Z" fill="#5AC4E0"/>
<path d="M640.664 256.853C640.664 248.88 630.475 243.64 630.475 243.64H596.179C596.179 243.64 585.975 248.88 585.975 256.853C586.085 258.923 586.362 260.981 586.804 263.009H598.237C597.779 263.827 597.35 264.576 597.022 265.213C596.922 265.408 596.807 265.588 596.707 265.768H604.981C605.597 265.768 606.782 266.018 606.611 265.131C606.354 263.869 605.554 263.148 606.339 261.803C606.747 261.252 607.274 260.796 607.885 260.464C608.494 260.134 609.172 259.937 609.869 259.89C610.136 259.876 610.402 259.876 610.669 259.89C612.456 259.89 614.242 259.89 616.043 259.89C616.714 259.925 617.381 260.033 618.029 260.208C618.614 260.306 619.372 260.306 619.701 260.875C620.03 261.672 620.232 262.513 620.301 263.37C620.305 264.173 620.243 264.975 620.116 265.768H631.719C630.998 264.882 630.33 263.956 629.718 262.995H639.85C640.288 260.972 640.561 258.918 640.664 256.853Z" fill="#0254E4"/>
<g style="mix-blend-mode:multiply" opacity="0.65">
<g style="mix-blend-mode:multiply" opacity="0.65">
<path d="M640.664 256.873C640.664 248.889 630.475 243.64 630.475 243.64H596.179C596.179 243.64 585.975 248.889 585.975 256.873C586.085 258.945 586.362 261.007 586.804 263.038H598.237C597.779 263.856 597.35 264.606 597.022 265.246C596.922 265.439 596.807 265.62 596.707 265.801H606.597C606.854 265.801 606.197 264.412 606.139 264.287C605.889 263.772 605.83 263.189 605.968 262.635C606.197 262.048 606.587 261.534 607.097 261.149C608.83 260.03 610.922 259.562 612.985 259.83C614.956 259.83 617.114 259.622 618.829 260.746C619.164 260.937 619.463 261.182 619.716 261.469C620.901 262.857 620.287 264.246 620.116 265.801H631.719C630.998 264.913 630.33 263.986 629.718 263.024H639.85C640.288 260.997 640.561 258.94 640.664 256.873Z" fill="#00A1CC"/>
</g>
</g>
<path d="M591.082 205.967C591.082 205.967 578.262 233.244 579.187 236.871C579.425 237.781 595.019 247.062 602.36 245.724L605.344 245.186C605.344 245.186 594.444 205.774 591.082 205.967Z" fill="#AFEAF0"/>
<path d="M637.317 205.967C637.317 205.967 650.707 233.244 649.729 236.871C649.48 237.781 633.208 247.062 625.549 245.724L622.435 245.186C622.435 245.186 633.794 205.774 637.317 205.967Z" fill="#AFEAF0"/>
<path d="M596.252 214.831C596.239 216.203 596.077 217.571 595.771 218.907C594.658 223.941 592.914 229.201 594.755 234.321C596.342 238.312 598.238 242.165 600.427 245.843C601.093 245.879 601.761 245.841 602.419 245.73L605.344 245.18C605.344 245.18 600.455 226.705 596.252 214.831Z" fill="#5AC4E0"/>
<path d="M629.98 245.63C631.004 243.349 631.5 240.889 631.433 238.413C631.258 233.413 631.23 228.414 631.317 223.346C631.317 221.183 631.419 219.088 631.55 217.047C627.188 228.565 622.435 245.178 622.435 245.178L625.531 245.712C627.008 245.929 628.513 245.901 629.98 245.63Z" fill="#5AC4E0"/>
<path d="M601.085 305.082C601.085 305.082 592.854 314.408 591.889 316.394C590.924 318.377 593.308 320.875 596.487 319.862C599.666 318.849 601.567 316.757 601.624 315.435C601.68 314.112 603.384 313.397 604.136 313.289C604.887 313.18 609.159 308.564 608.734 307.282C608.307 306 606.164 304.583 606.164 304.583L601.085 305.082Z" fill="#292C3D"/>
<path d="M626.069 305.082C626.069 305.082 634.846 314.408 635.876 316.394C636.905 318.377 634.362 320.875 630.973 319.862C627.582 318.849 625.555 316.757 625.494 315.435C625.433 314.112 623.617 313.397 622.814 313.289C622.013 313.18 617.442 308.564 617.911 307.282C618.381 306 620.65 304.583 620.65 304.583L626.069 305.082Z" fill="#292C3D"/>
<path d="M583.697 264.693H581.418V320.095H583.697V264.693Z" fill="#AFEAF0"/>
<path d="M646.361 264.693H644.083V320.095H646.361V264.693Z" fill="#AFEAF0"/>
<path d="M649.78 260.26H575.721V266.909H649.78V260.26Z" fill="#292C3D"/>
<path d="M604.256 256.357C603.249 254.059 603.044 249.181 596.26 249.181C583.126 249.181 586.235 259.246 586.438 260.76C588.409 275.76 597.909 305.69 597.909 305.69H611.042C611.042 305.69 606.285 269.017 605.541 263.353C605.335 260.989 604.905 258.647 604.256 256.357Z" fill="#0254E4"/>
<path d="M623.201 256.357C624.176 254.059 624.372 249.181 630.849 249.181C643.385 249.181 640.418 259.246 640.223 260.76C638.329 275.76 629.274 305.69 629.274 305.69H616.738C616.738 305.69 621.279 269.017 621.989 263.353C622.187 260.99 622.592 258.649 623.201 256.357Z" fill="#0254E4"/>
<path d="M632.689 245.856H595.09V248.072H632.689V245.856Z" fill="#292C3D"/>
<path d="M638.396 220.371H589.411C589.052 220.368 588.699 220.447 588.377 220.601C588.057 220.755 587.778 220.979 587.564 221.256C587.35 221.533 587.207 221.854 587.148 222.193C587.087 222.533 587.111 222.881 587.217 223.21C587.675 226.036 593.844 245.856 595.092 245.856H632.688C633.777 245.856 640.104 226.036 640.563 223.21C640.668 222.883 640.692 222.538 640.633 222.2C640.574 221.862 640.433 221.543 640.224 221.266C640.013 220.991 639.738 220.766 639.42 220.61C639.104 220.455 638.752 220.373 638.396 220.371Z" fill="#292C3D"/>
<path d="M616.738 234.21C616.742 234.54 616.61 234.862 616.361 235.138C616.112 235.412 615.756 235.628 615.34 235.754C614.922 235.882 614.462 235.917 614.019 235.853C613.575 235.789 613.168 235.63 612.848 235.397C612.529 235.163 612.311 234.867 612.224 234.543C612.136 234.22 612.182 233.884 612.357 233.58C612.532 233.275 612.827 233.016 613.204 232.835C613.581 232.653 614.024 232.557 614.475 232.559C615.075 232.559 615.651 232.733 616.075 233.043C616.5 233.352 616.738 233.773 616.738 234.21Z" fill="white"/>
<path d="M453.887 33.0454H424.945L409.439 45.2996L416.406 33.0454H409.296C408.713 33.0454 408.154 32.821 407.74 32.4217C407.327 32.0224 407.095 31.4808 407.095 30.916V3.1071C407.095 2.54237 407.327 2.00078 407.74 1.60145C408.154 1.20212 408.713 0.977783 409.296 0.977783H453.887C454.471 0.977783 455.031 1.20212 455.444 1.60145C455.856 2.00078 456.088 2.54237 456.088 3.1071V30.8948C456.09 31.1762 456.036 31.4553 455.927 31.7162C455.818 31.9769 455.656 32.2143 455.451 32.4142C455.246 32.6142 455.004 32.773 454.734 32.8813C454.467 32.9897 454.179 33.0454 453.887 33.0454Z" fill="black"/>
<path d="M435.58 14.0666C435.58 16.8562 432.278 17.6817 432.278 18.764V19.1968H428.968V18.1387C428.968 16.6397 431.485 15.782 431.485 14.1307C431.494 13.9462 431.469 13.7614 431.41 13.5877C431.35 13.4139 431.257 13.255 431.138 13.1205C431.018 12.9862 430.874 12.8791 430.714 12.8061C430.554 12.7331 430.381 12.6956 430.207 12.6959C429.157 12.6959 428.945 13.5616 428.945 14.4194C428.934 14.6035 428.934 14.7882 428.945 14.9725H425.386C425.386 14.7079 425.325 14.4595 425.325 14.1708C425.325 11.5015 427.593 9.84222 430.616 9.84222C433.638 9.84222 435.58 11.5256 435.58 14.0666ZM432.557 24.2468H428.726V20.4473H432.557V24.2468Z" fill="white"/>
<path d="M415.291 255.824C411.955 254.464 409.538 253.314 410.114 248.158C410.175 247.069 410.473 246.003 410.986 245.032C411.498 244.06 412.217 243.204 413.093 242.518C413.773 242.128 414.362 241.603 414.822 240.977C415.28 240.352 415.599 239.642 415.758 238.89C416.444 235.865 415.572 233.387 417.068 230.619C418.564 227.852 422.104 227.973 423.71 225.221C425.081 222.832 425.72 220.201 428.855 219.279C429.388 219.075 429.974 219.033 430.533 219.162C431.092 219.29 431.597 219.583 431.979 219.997C432.361 220.413 432.603 220.933 432.672 221.485C432.739 222.038 432.632 222.598 432.362 223.089C431.579 224.373 430.886 225.706 430.289 227.081C430.206 227.713 430.26 228.355 430.444 228.967C430.63 229.578 430.943 230.145 431.364 230.634C433.032 233.402 433.875 236.682 430.663 239.555C428.73 241.248 427.264 242.7 428.231 245.468C429.338 248.628 429.899 250.563 426.953 253.344C424.738 255.431 422.697 255.266 420.217 255.416C417.988 255.568 415.088 256.489 413.28 255.054L415.291 255.824Z" fill="#8494AB"/>
<path d="M408.179 255.732C405.793 258.211 403.751 260.162 400.227 257.244C399.351 256.528 398.664 255.619 398.225 254.592C397.786 253.567 397.606 252.454 397.701 251.346C397.701 249.321 397.873 248.398 396.579 246.811C394.537 244.361 391.606 243.484 390.343 240.34C388.924 236.937 392.105 234.76 390.951 231.72C389.954 229.06 388.067 226.58 389.86 224.297C391.325 222.422 394.35 223.541 395.488 225.687C395.922 226.984 396.443 228.252 397.047 229.483C397.838 230.422 398.939 231.068 400.164 231.312C402.768 232.22 405.107 233.762 405.325 236.998C405.45 238.993 405.652 240.642 407.617 241.533C409.581 242.426 410.844 243.046 411.235 246.07C411.392 248.004 410.941 249.938 409.941 251.619C409.161 253.418 408.506 256.155 406.822 257.259L408.179 255.732Z" fill="#0254E4"/>
<path d="M417.737 252.498H417.425C417.357 252.491 417.295 252.459 417.252 252.408C417.208 252.357 417.187 252.292 417.19 252.226C417.193 252.194 417.201 252.162 417.217 252.132C417.232 252.103 417.255 252.078 417.281 252.058C417.307 252.038 417.338 252.023 417.371 252.016C417.405 252.008 417.438 252.008 417.471 252.015C419.124 252.181 420.839 250.715 421.775 249.415C422.39 248.482 422.608 247.354 422.382 246.27V245.287C422.226 242.732 422.087 240.539 424.128 238.527C425.121 237.73 425.889 236.702 426.362 235.539C426.833 234.375 426.993 233.114 426.826 231.874V231.089C426.738 230.08 426.764 229.066 426.903 228.064C427.037 227.537 427.242 227.028 427.512 226.553C427.849 225.986 428.061 225.358 428.136 224.708C428.136 224.643 428.162 224.582 428.208 224.537C428.256 224.491 428.319 224.466 428.384 224.466C428.451 224.466 428.514 224.491 428.562 224.537C428.608 224.582 428.634 224.643 428.634 224.708C428.569 225.432 428.339 226.135 427.964 226.764C427.713 227.207 427.524 227.679 427.402 228.171C427.277 229.144 427.277 230.129 427.402 231.104C427.402 231.376 427.402 231.648 427.402 231.905C427.575 233.212 427.405 234.539 426.909 235.765C426.413 236.991 425.607 238.077 424.565 238.921C422.678 240.765 422.803 242.777 423.006 245.302V246.285C423.249 247.481 423.003 248.723 422.32 249.747C421.817 250.509 421.144 251.152 420.351 251.628C419.557 252.104 418.664 252.402 417.737 252.498Z" fill="white"/>
<path d="M423.463 245.725C423.258 245.717 423.059 245.666 422.878 245.574C422.697 245.483 422.54 245.353 422.418 245.195C422.375 245.145 422.353 245.081 422.359 245.016C422.365 244.95 422.397 244.889 422.449 244.848C422.501 244.806 422.568 244.785 422.634 244.791C422.702 244.797 422.764 244.828 422.807 244.878C422.897 245.009 423.026 245.111 423.176 245.17C423.326 245.229 423.492 245.243 423.65 245.21C424.709 244.953 425.863 242.762 426.05 241.945C426.596 239.51 427.251 238.27 429.699 237.409C429.761 237.385 429.83 237.386 429.892 237.411C429.952 237.437 430.001 237.484 430.026 237.545C430.051 237.605 430.05 237.672 430.024 237.731C429.997 237.791 429.947 237.838 429.886 237.862C427.532 238.739 427.032 239.873 426.533 242.095C426.377 242.822 425.193 245.392 423.774 245.725C423.671 245.741 423.565 245.741 423.463 245.725Z" fill="white"/>
<path d="M408.322 254.494C407.86 254.499 407.404 254.388 406.997 254.176C405.235 253.284 404.424 250.638 403.707 248.31C403.448 247.299 403.082 246.316 402.616 245.376C401.575 243.506 400.082 241.908 398.267 240.72C397.234 240.078 396.375 239.204 395.764 238.173C395.154 237.14 394.809 235.981 394.759 234.792C394.589 232.661 393.929 230.594 392.825 228.744C392.801 228.721 392.782 228.695 392.769 228.664C392.756 228.634 392.749 228.603 392.749 228.571C392.749 228.538 392.756 228.506 392.769 228.476C392.782 228.447 392.801 228.419 392.825 228.397C392.849 228.374 392.876 228.355 392.907 228.342C392.938 228.33 392.972 228.323 393.005 228.323C393.038 228.323 393.072 228.33 393.101 228.342C393.132 228.355 393.161 228.374 393.184 228.397C394.344 230.322 395.037 232.478 395.211 234.702C395.244 235.828 395.563 236.929 396.141 237.907C396.717 238.885 397.532 239.711 398.516 240.311C400.382 241.552 401.925 243.199 403.022 245.119C403.492 246.091 403.867 247.104 404.144 248.143C404.83 250.381 405.61 252.906 407.184 253.708C407.505 253.866 407.857 253.956 408.217 253.975C408.576 253.992 408.937 253.938 409.273 253.814C409.335 253.794 409.403 253.8 409.461 253.828C409.519 253.855 409.563 253.905 409.585 253.964C409.597 253.996 409.601 254.028 409.599 254.06C409.597 254.094 409.587 254.125 409.572 254.154C409.555 254.183 409.532 254.208 409.505 254.227C409.478 254.247 409.447 254.261 409.413 254.267C409.066 254.401 408.697 254.478 408.322 254.494Z" fill="white"/>
<path d="M400.571 242.473C400.52 242.487 400.466 242.487 400.415 242.473C400.37 242.426 400.345 242.363 400.345 242.299C400.345 242.235 400.37 242.173 400.415 242.126C401.164 241.203 400.712 239.721 400.228 238.163C399.697 236.932 399.531 235.582 399.745 234.263C399.769 234.201 399.816 234.15 399.876 234.12C399.937 234.089 400.006 234.081 400.072 234.096C400.136 234.12 400.186 234.167 400.215 234.226C400.244 234.285 400.249 234.352 400.228 234.413C400.058 235.638 400.225 236.885 400.712 238.028C401.211 239.631 401.709 241.294 400.82 242.428C400.787 242.456 400.746 242.476 400.702 242.484C400.658 242.492 400.613 242.488 400.571 242.473Z" fill="white"/>
<path d="M403.102 245.768H403.008C402.694 245.641 402.392 245.49 402.103 245.314C401.689 245.019 401.197 244.841 400.686 244.8C400.378 244.777 400.071 244.777 399.765 244.8C399.071 244.903 398.362 244.808 397.723 244.528C396.394 243.793 395.233 242.806 394.308 241.624C394.094 241.358 393.896 241.081 393.717 240.793C393.405 240.324 392.827 239.463 392.609 239.417C392.576 239.412 392.544 239.4 392.517 239.383C392.488 239.364 392.464 239.342 392.445 239.315C392.426 239.288 392.413 239.257 392.406 239.226C392.4 239.194 392.4 239.161 392.406 239.13C392.418 239.067 392.453 239.013 392.506 238.976C392.558 238.94 392.624 238.924 392.687 238.933C393.077 238.933 393.498 239.583 394.137 240.521C394.356 240.838 394.558 241.141 394.699 241.307C395.588 242.43 396.694 243.376 397.957 244.089C398.506 244.34 399.121 244.419 399.719 244.316C400.051 244.293 400.384 244.293 400.717 244.316C401.309 244.367 401.878 244.564 402.369 244.891C402.628 245.059 402.906 245.2 403.195 245.314C403.226 245.325 403.255 245.343 403.278 245.366C403.302 245.388 403.321 245.414 403.334 245.443C403.348 245.473 403.355 245.505 403.355 245.537C403.355 245.57 403.349 245.601 403.336 245.631C403.312 245.672 403.277 245.705 403.237 245.728C403.196 245.753 403.15 245.765 403.102 245.768Z" fill="white"/>
<path d="M407.164 256.291C403.579 253.373 399.369 251.408 400.305 245.828C401.1 241.292 406.542 240.037 404.857 235.077C403.765 231.902 400.929 228.244 401.895 224.705C402.924 220.925 408.007 222.437 409.098 218.914C410.018 215.891 406.79 212.488 409.675 210.053C412.2 207.906 416.706 209.948 418.079 212.413C419.808 215.558 416.94 217.901 417.408 220.986C417.719 222.966 419.684 223.254 421.118 224.402C422.656 225.607 423.857 227.167 424.611 228.939C426.465 234.035 421.165 235.894 419.559 239.825C418 243.53 423.207 244.679 423.598 248.429C424.033 252.556 419.481 255.807 415.802 256.488C413.276 256.926 409.425 258.136 407.164 256.291Z" fill="#99F2A8"/>
<path d="M411.269 257.487C411.237 257.478 411.207 257.464 411.181 257.443C411.155 257.423 411.134 257.399 411.118 257.37C411.103 257.342 411.092 257.311 411.088 257.28C411.085 257.247 411.088 257.215 411.098 257.185C412.805 250.753 412.96 244.027 411.55 237.528C410.439 232.725 410.775 227.713 412.517 223.088C413.261 221.312 413.576 219.392 413.436 217.479C413.431 217.418 413.448 217.356 413.486 217.307C413.523 217.257 413.578 217.221 413.639 217.207C413.672 217.2 413.706 217.2 413.738 217.207C413.772 217.213 413.803 217.225 413.83 217.244C413.857 217.262 413.881 217.286 413.899 217.313C413.917 217.34 413.93 217.371 413.935 217.403C414.097 219.392 413.775 221.391 413 223.24C411.278 227.779 410.942 232.703 412.034 237.422C413.47 243.999 413.316 250.811 411.581 257.32C411.572 257.352 411.557 257.381 411.536 257.406C411.516 257.43 411.49 257.451 411.461 257.468C411.432 257.483 411.4 257.492 411.367 257.495C411.335 257.499 411.301 257.496 411.269 257.487Z" fill="white"/>
<path d="M411.907 237.468C411.846 237.468 411.787 237.447 411.742 237.408C411.695 237.37 411.665 237.315 411.658 237.256C411.653 237.225 411.656 237.192 411.664 237.161C411.672 237.13 411.688 237.101 411.708 237.076C411.728 237.051 411.753 237.029 411.782 237.014C411.812 236.998 411.843 236.988 411.876 236.984C413.028 236.797 414.095 236.272 414.931 235.481C415.768 234.688 416.333 233.667 416.553 232.553C416.553 232.281 416.553 231.995 416.553 231.677C416.646 230.165 416.756 228.35 417.878 227.458C418.183 227.233 418.534 227.072 418.907 226.986C419.281 226.899 419.669 226.891 420.045 226.96C420.104 226.974 420.153 227.005 420.19 227.05C420.227 227.095 420.246 227.151 420.246 227.209C420.246 227.266 420.227 227.322 420.19 227.368C420.153 227.413 420.104 227.444 420.045 227.458C419.736 227.393 419.417 227.393 419.107 227.459C418.798 227.524 418.506 227.653 418.252 227.836C417.317 228.593 417.208 230.316 417.114 231.708C417.114 232.025 417.114 232.328 417.114 232.599C416.881 233.825 416.263 234.95 415.344 235.821C414.426 236.693 413.253 237.268 411.986 237.468H411.907Z" fill="white"/>
<path d="M410.381 237.588C409.473 237.607 408.591 237.3 407.901 236.726C407.339 236.151 406.916 235.462 406.66 234.709C406.404 233.957 406.322 233.158 406.42 232.372C406.42 232.175 406.42 231.949 406.42 231.706C406.499 230.3 406.607 228.168 405.704 227.169C405.553 227.012 405.369 226.888 405.165 226.804C404.961 226.721 404.741 226.68 404.519 226.686C404.461 226.672 404.41 226.64 404.374 226.595C404.337 226.55 404.317 226.494 404.317 226.437C404.317 226.379 404.337 226.324 404.374 226.278C404.41 226.233 404.461 226.201 404.519 226.187C404.812 226.186 405.103 226.244 405.372 226.358C405.639 226.473 405.881 226.641 406.078 226.852C407.138 227.956 407.013 230.209 406.935 231.691C406.935 231.932 406.935 232.159 406.935 232.356C406.844 233.071 406.914 233.797 407.141 234.484C407.367 235.17 407.743 235.801 408.244 236.332C408.712 236.675 409.254 236.912 409.829 237.024C410.404 237.137 410.997 237.123 411.566 236.983C411.598 236.979 411.631 236.981 411.663 236.99C411.695 236.998 411.725 237.013 411.751 237.032C411.778 237.052 411.799 237.076 411.816 237.104C411.832 237.132 411.842 237.163 411.847 237.195C411.853 237.226 411.853 237.257 411.847 237.289C411.839 237.32 411.826 237.349 411.807 237.374C411.788 237.4 411.763 237.422 411.735 237.437C411.707 237.453 411.676 237.464 411.643 237.467C411.229 237.552 410.805 237.592 410.381 237.588Z" fill="white"/>
<path d="M413.357 253.495C413.041 253.494 412.728 253.432 412.438 253.313C412.407 253.301 412.378 253.284 412.355 253.262C412.331 253.239 412.312 253.212 412.299 253.183C412.285 253.153 412.278 253.122 412.278 253.089C412.278 253.057 412.284 253.026 412.297 252.996C412.325 252.938 412.374 252.891 412.433 252.867C412.494 252.841 412.562 252.839 412.625 252.86C414.183 253.465 416.459 251.816 417.302 250.713C417.681 250.12 417.969 249.478 418.159 248.807C418.612 247.462 419.079 246.085 420.357 245.783C420.424 245.769 420.493 245.781 420.551 245.814C420.608 245.848 420.651 245.901 420.669 245.965C420.678 245.996 420.681 246.03 420.676 246.062C420.672 246.096 420.66 246.127 420.643 246.155C420.626 246.184 420.602 246.208 420.575 246.227C420.547 246.246 420.515 246.26 420.482 246.267C419.469 246.509 419.047 247.78 418.643 248.973C418.439 249.703 418.118 250.397 417.691 251.03C416.632 252.366 415.077 253.25 413.357 253.495Z" fill="white"/>
<path d="M411.113 253.391C410.784 253.385 410.458 253.329 410.146 253.224C408.334 252.351 406.918 250.86 406.171 249.036C405.877 248.127 405.745 247.176 405.781 246.223C405.781 244.53 405.64 242.762 404.487 242.202C404.457 242.187 404.431 242.166 404.409 242.142C404.388 242.117 404.371 242.088 404.362 242.057C404.351 242.027 404.347 241.993 404.351 241.962C404.353 241.93 404.363 241.898 404.378 241.869C404.394 241.84 404.414 241.815 404.44 241.794C404.465 241.773 404.495 241.757 404.527 241.748C404.559 241.737 404.593 241.734 404.626 241.736C404.659 241.74 404.691 241.749 404.721 241.763C406.14 242.459 406.28 244.455 406.28 246.208C406.252 247.103 406.368 247.995 406.624 248.855C407.332 250.542 408.635 251.929 410.302 252.771C410.603 252.877 410.925 252.92 411.245 252.896C411.565 252.873 411.876 252.783 412.158 252.635C412.187 252.619 412.22 252.61 412.253 252.606C412.287 252.604 412.32 252.607 412.352 252.617C412.384 252.627 412.414 252.642 412.439 252.664C412.465 252.685 412.486 252.712 412.501 252.741C412.52 252.766 412.532 252.796 412.538 252.827C412.543 252.859 412.541 252.89 412.532 252.921C412.524 252.951 412.507 252.979 412.486 253.004C412.464 253.027 412.437 253.045 412.407 253.058C412.013 253.277 411.566 253.392 411.113 253.391Z" fill="white"/>
<path d="M395.147 254.855C393.219 259.981 392.248 265.398 392.278 270.853C392.278 287.849 400.978 301.623 411.719 301.623C422.461 301.623 431.145 287.849 431.145 270.853C431.183 265.385 430.223 259.953 428.307 254.81L395.147 254.855Z" fill="#FF4C6B"/>
<path d="M430.364 262.143C429.91 259.66 429.226 257.221 428.323 254.855H395.145C394.24 257.221 393.557 259.66 393.104 262.143H430.364Z" fill="#0254E4"/>
<defs>
<linearGradient id="paint0_linear" x1="507.842" y1="93.3634" x2="507.842" y2="286.962" gradientUnits="userSpaceOnUse">
<stop stop-color="white"/>
<stop offset="1" stop-color="white" stop-opacity="0.08"/>
</linearGradient>
<linearGradient id="paint1_linear" x1="386.406" y1="93.3634" x2="386.406" y2="286.962" gradientUnits="userSpaceOnUse">
<stop stop-color="white"/>
<stop offset="1" stop-color="white" stop-opacity="0.08"/>
</linearGradient>
<linearGradient id="paint2_linear" x1="106.01" y1="89.3853" x2="106.01" y2="289.615" gradientUnits="userSpaceOnUse">
<stop stop-color="white"/>
<stop offset="1" stop-color="white" stop-opacity="0.08"/>
</linearGradient>
<linearGradient id="paint3_linear" x1="248.595" y1="89.3853" x2="248.595" y2="289.615" gradientUnits="userSpaceOnUse">
<stop stop-color="white"/>
<stop offset="1" stop-color="white" stop-opacity="0.08"/>
</linearGradient>
</defs>
</svg>
